<?xml version="1.0" encoding="utf-8"?>
<!-- Generator: Adobe Illustrator 16.0.0, SVG Export Plug-In . SVG Version: 6.00 Build 0)  -->
<!DOCTYPE svg PUBLIC "-//W3C//DTD SVG 1.1//EN" "http://www.w3.org/Graphics/SVG/1.1/DTD/svg11.dtd">
<svg version="1.1" xmlns="http://www.w3.org/2000/svg" xmlns:xlink="http://www.w3.org/1999/xlink" x="0px" y="0px"
	 width="260.605px" height="243.183px" viewBox="0 0 260.605 243.183" enable-background="new 0 0 260.605 243.183"
	 xml:space="preserve">
<g id="Calque_1">
	<g id="CIRCLE">
	</g>
	<g id="plan-8">
	</g>
</g>
<g id="plan-2">
	<g id="_x3C_Calque_x3E_" display="none">
	</g>
	<g id="TXT-WHITE">
	</g>
	<g id="TXT-BLACK" display="none">
	</g>
	<g id="motif_1_">
	</g>
</g>
<g id="Plan-3">
</g>
<g id="Plan-4">
</g>
<g id="PARTS">
	<g id="parts">
		<g>
			<rect x="129.121" y="3.696" opacity="0.1" fill="#8B5E3C" width="120" height="118"/>
			<rect x="12.121" y="120.696" opacity="0.1" fill="#8B5E3C" width="118" height="118"/>
			<g>
				<path fill="#615B5D" d="M175.867,227.974c0,0-0.814,0.397-2.341,1.142c-0.766,0.368-1.71,0.822-2.819,1.355
					c-1.128,0.495-2.447,1.026-3.924,1.632c-1.469,0.64-3.139,1.201-4.954,1.836c-0.91,0.311-1.849,0.672-2.846,0.961
					c-1,0.284-2.036,0.578-3.106,0.882c-2.133,0.659-4.454,1.138-6.896,1.703c-1.217,0.312-2.487,0.494-3.785,0.711
					c-1.3,0.206-2.627,0.451-3.99,0.64c-2.735,0.279-5.584,0.708-8.558,0.814c-1.501,0.073-2.959,0.212-4.57,0.192
					c-1.51-0.002-3.043-0.004-4.598-0.006c-6.385-0.183-13.066-0.81-19.862-2.2c-6.792-1.374-13.738-3.329-20.475-6.144
					c-6.748-2.778-13.347-6.229-19.568-10.267c-6.196-4.076-12.013-8.73-17.231-13.829c-5.25-5.068-9.845-10.621-13.854-16.271
					c-4.024-5.647-7.343-11.498-9.989-17.256c-2.669-5.747-4.74-11.375-6.216-16.684c-0.423-1.311-0.684-2.639-1.021-3.91
					c-0.302-1.281-0.668-2.514-0.864-3.754c-0.451-2.467-0.939-4.786-1.188-7.005c-0.148-1.103-0.293-2.17-0.432-3.2
					c-0.123-1.031-0.178-2.034-0.255-2.992c-0.151-1.918-0.288-3.675-0.293-5.271c-0.034-1.593-0.087-3.011-0.072-4.245
					c0.043-1.233,0.08-2.283,0.11-3.134c0.069-1.697,0.106-2.603,0.106-2.603s0.083,0.902,0.238,2.595
					c0.072,0.844,0.162,1.884,0.268,3.107c0.157,1.216,0.337,2.613,0.539,4.179c0.167,1.566,0.482,3.284,0.827,5.148
					c0.178,0.931,0.327,1.904,0.528,2.905c0.223,0.996,0.454,2.029,0.692,3.096c0.937,4.265,2.35,8.985,4.096,14.034
					c0.471,1.25,0.952,2.525,1.442,3.826c0.496,1.296,1.103,2.578,1.661,3.901c0.287,0.658,0.575,1.323,0.866,1.992
					c0.317,0.658,0.638,1.32,0.96,1.988c0.658,1.329,1.257,2.71,2.018,4.034c2.811,5.411,6.291,10.83,10.25,16.141
					c3.969,5.312,8.577,10.396,13.608,15.176c5.056,4.756,10.587,9.165,16.489,13.015c5.873,3.894,12.113,7.234,18.507,9.939
					c1.612,0.643,3.218,1.282,4.816,1.919c1.622,0.576,3.235,1.148,4.84,1.719c1.631,0.492,3.251,0.981,4.86,1.467
					c1.614,0.472,3.248,0.82,4.854,1.233c6.463,1.467,12.829,2.425,18.856,2.889c1.553,0.077,3.084,0.152,4.592,0.228
					c0.353,0.014,0.81,0.048,1.07,0.044l1.1-0.002c0.73,0.004,1.455,0.007,2.174,0.011c2.881,0.092,5.653-0.142,8.329-0.232
					c5.323-0.45,10.219-1.011,14.501-1.866c1.073-0.208,2.112-0.409,3.114-0.603c1.001-0.206,1.951-0.466,2.875-0.675
					c1.844-0.438,3.55-0.822,5.045-1.298c1.514-0.441,2.866-0.835,4.042-1.177c1.166-0.396,2.157-0.733,2.962-1.007
					C175.008,228.261,175.867,227.974,175.867,227.974z"/>
			</g>
			<g>
				<path fill="#615B5D" d="M245.725,121.071c0,0,0.041,0.717,0.119,2.063c0.05,0.671,0.055,1.501,0.048,2.486
					c-0.003,0.491,0.008,1.023-0.009,1.588c-0.035,0.563-0.071,1.161-0.11,1.793c-0.178,2.526-0.516,5.617-1.386,9.075
					c-0.834,3.462-2.096,7.323-4.034,11.306c-1.906,3.995-4.492,8.101-7.783,12.014c-3.295,3.897-7.26,7.665-11.936,10.777
					c-4.645,3.139-9.894,5.798-15.561,7.525c-2.826,0.888-5.751,1.512-8.708,1.996c-2.964,0.454-5.97,0.659-8.978,0.713
					c-1.604-0.053-2.846-0.036-4.464-0.189c-1.553-0.092-3.034-0.298-4.519-0.496c-2.96-0.467-5.884-1.114-8.708-2.008
					c-5.663-1.743-10.916-4.393-15.56-7.535c-4.675-3.114-8.646-6.876-11.938-10.777c-3.29-3.914-5.88-8.019-7.783-12.016
					c-1.938-3.983-3.202-7.845-4.033-11.309c-0.869-3.458-1.207-6.549-1.383-9.075c-0.039-0.633-0.075-1.23-0.11-1.794
					c-0.017-0.563-0.005-1.093-0.008-1.584c-0.007-0.981-0.001-1.813,0.049-2.489c0.078-1.346,0.12-2.063,0.12-2.063
					s0.078,0.714,0.225,2.052c0.053,0.668,0.174,1.487,0.328,2.445c0.133,0.961,0.33,2.056,0.579,3.274
					c0.492,2.435,1.238,5.355,2.4,8.579c1.165,3.222,2.764,6.737,4.87,10.338c0.533,0.896,1.117,1.786,1.7,2.697
					c0.638,0.877,1.23,1.805,1.931,2.68c1.348,1.787,2.825,3.563,4.456,5.281c1.646,1.702,3.403,3.384,5.345,4.924
					c0.947,0.798,1.97,1.521,2.969,2.289c1.041,0.71,2.063,1.47,3.169,2.121c4.337,2.744,9.226,4.865,14.354,6.39
					c2.566,0.768,5.222,1.271,7.894,1.695c1.345,0.169,2.695,0.349,4.002,0.416c1.23,0.131,2.857,0.109,4.115,0.158
					c2.719-0.02,5.438-0.168,8.122-0.546c2.676-0.407,5.328-0.935,7.894-1.708c5.125-1.54,10.018-3.651,14.353-6.399
					c2.179-1.353,4.221-2.847,6.142-4.408c1.94-1.541,3.699-3.224,5.344-4.927c3.229-3.459,5.972-7.063,8.088-10.66
					c2.105-3.602,3.706-7.116,4.868-10.339c1.162-3.225,1.908-6.146,2.398-8.581c0.248-1.22,0.446-2.313,0.578-3.27
					c0.154-0.955,0.274-1.776,0.327-2.448C245.646,121.785,245.725,121.071,245.725,121.071z"/>
			</g>
			<g>
				<path fill="#615B5D" d="M12.376,121.071c0,0-0.042-0.717-0.119-2.062c-0.05-0.672-0.056-1.502-0.048-2.486
					c0.003-0.492-0.008-1.024,0.009-1.589c0.035-0.563,0.071-1.161,0.11-1.793c0.178-2.526,0.516-5.616,1.386-9.074
					c0.834-3.462,2.097-7.324,4.035-11.307c1.906-3.994,4.492-8.1,7.783-12.013c3.295-3.896,7.26-7.664,11.936-10.776
					c4.645-3.139,9.894-5.797,15.561-7.525c2.825-0.888,5.751-1.512,8.707-1.996c2.964-0.454,5.971-0.659,8.978-0.713
					c1.604,0.053,2.846,0.036,4.464,0.189c1.553,0.092,3.034,0.298,4.519,0.496c2.961,0.467,5.884,1.114,8.708,2.008
					c5.663,1.743,10.916,4.393,15.56,7.535c4.675,3.114,8.646,6.876,11.938,10.777c3.291,3.914,5.881,8.018,7.784,12.015
					c1.938,3.983,3.202,7.845,4.033,11.308c0.869,3.459,1.208,6.549,1.384,9.076c0.039,0.632,0.075,1.229,0.11,1.793
					c0.017,0.563,0.005,1.093,0.008,1.584c0.007,0.981,0.001,1.813-0.049,2.489c-0.078,1.346-0.12,2.063-0.12,2.063
					s-0.078-0.714-0.225-2.052c-0.053-0.668-0.174-1.487-0.328-2.445c-0.133-0.961-0.331-2.056-0.58-3.273
					c-0.492-2.435-1.237-5.356-2.4-8.58c-1.165-3.221-2.764-6.736-4.87-10.337c-0.533-0.896-1.117-1.786-1.7-2.697
					c-0.638-0.877-1.23-1.805-1.932-2.68c-1.347-1.787-2.824-3.563-4.456-5.28c-1.645-1.702-3.402-3.384-5.344-4.924
					c-0.947-0.798-1.97-1.521-2.969-2.289c-1.042-0.71-2.064-1.47-3.17-2.121c-4.336-2.744-9.225-4.865-14.353-6.39
					c-2.567-0.768-5.223-1.271-7.894-1.695c-1.345-0.169-2.696-0.349-4.002-0.416c-1.231-0.131-2.858-0.109-4.116-0.158
					c-2.719,0.02-5.438,0.168-8.121,0.546c-2.676,0.407-5.328,0.935-7.894,1.708c-5.125,1.54-10.018,3.651-14.353,6.399
					c-2.179,1.353-4.22,2.847-6.141,4.408c-1.941,1.541-3.699,3.223-5.345,4.926c-3.229,3.46-5.972,7.063-8.088,10.659
					c-2.105,3.602-3.707,7.117-4.869,10.34c-1.162,3.224-1.908,6.146-2.398,8.58c-0.248,1.22-0.446,2.313-0.578,3.27
					c-0.153,0.955-0.274,1.776-0.327,2.448C12.454,120.357,12.376,121.071,12.376,121.071z"/>
			</g>
			<g>
				<path fill="#615B5D" d="M12.376,122.044c0,0-0.042-0.36-0.119-1.036c-0.034-0.338-0.076-0.754-0.126-1.244
					c-0.021-0.245-0.06-0.507-0.072-0.789c0.007-0.286,0.014-0.59,0.021-0.911c0.02-0.646,0.024-1.373,0.067-2.166
					c0.088-0.775,0.227-1.611,0.359-2.517c0.154-0.899,0.439-1.828,0.682-2.836c0.268-1,0.72-1.988,1.109-3.066
					c0.485-1.027,1.015-2.103,1.634-3.175c0.678-1.033,1.331-2.154,2.197-3.158c1.604-2.123,3.711-4.032,6.071-5.76
					c0.612-0.404,1.229-0.812,1.852-1.222c0.631-0.396,1.318-0.706,1.986-1.064l1.015-0.521l1.063-0.431
					c0.717-0.271,1.429-0.579,2.169-0.807c1.493-0.414,2.994-0.879,4.56-1.059c0.776-0.126,1.553-0.26,2.342-0.275l1.18-0.067
					l0.59-0.031l0.296-0.016l0.147-0.008l0.073-0.004l0.037-0.002c0.08,0.001-0.127-0.005,0.188,0.002l2.144,0.12
					c0.372,0.031,0.681,0.015,1.104,0.086l1.222,0.183c1.669,0.19,3.151,0.653,4.644,1.067c0.74,0.226,1.45,0.537,2.17,0.804
					l1.063,0.431l1.016,0.521c0.667,0.359,1.354,0.669,1.985,1.066c0.623,0.409,1.241,0.816,1.854,1.22
					c2.361,1.729,4.468,3.638,6.073,5.76c0.866,1.005,1.519,2.128,2.197,3.159c0.62,1.073,1.147,2.149,1.635,3.177
					c0.39,1.078,0.84,2.068,1.109,3.067c0.241,1.009,0.526,1.938,0.68,2.837c0.131,0.906,0.271,1.742,0.358,2.518
					c0.04,0.784,0.044,1.504,0.063,2.146c0.007,0.319,0.014,0.623,0.02,0.908c-0.012,0.285-0.05,0.555-0.07,0.804
					c-0.05,0.494-0.092,0.914-0.127,1.256c-0.078,0.674-0.12,1.033-0.12,1.033s-0.078-0.355-0.225-1.021
					c-0.163-0.66-0.272-1.635-0.661-2.82c-0.178-0.595-0.356-1.252-0.581-1.952c-0.289-0.687-0.555-1.432-0.858-2.216
					c-0.314-0.779-0.764-1.564-1.165-2.402c-0.428-0.828-0.98-1.646-1.488-2.516c-0.596-0.823-1.188-1.691-1.873-2.525
					c-0.736-0.798-1.395-1.693-2.264-2.442c-1.581-1.638-3.542-3.03-5.608-4.312c-2.094-1.268-4.443-2.183-6.861-2.928
					c-0.616-0.145-1.235-0.289-1.856-0.436c-0.313-0.088-0.617-0.134-0.912-0.166l-0.895-0.131l-0.896-0.141
					c-0.28-0.058-0.692-0.043-1.032-0.068l-2.145-0.188c0.293,0.01,0.063-0.084,0.121-0.084h-0.03l-0.06,0.094l-0.12,0.051
					l-0.241,0.035l-0.481,0.033l-0.964,0.047c-0.646-0.003-1.278,0.109-1.911,0.205l-0.949,0.138
					c-0.319,0.031-0.634,0.083-0.941,0.17c-0.621,0.146-1.24,0.292-1.857,0.437c-2.42,0.738-4.767,1.662-6.863,2.925
					c-2.066,1.282-4.029,2.675-5.611,4.313c-0.87,0.749-1.525,1.646-2.265,2.442c-0.685,0.836-1.275,1.705-1.872,2.527
					c-0.509,0.87-1.06,1.688-1.489,2.517c-0.4,0.839-0.849,1.624-1.163,2.404c-0.302,0.784-0.569,1.529-0.857,2.216
					c-0.223,0.692-0.399,1.341-0.577,1.933c-0.185,0.586-0.328,1.131-0.411,1.619c-0.099,0.481-0.183,0.892-0.25,1.225
					C12.453,121.689,12.376,122.044,12.376,122.044z"/>
			</g>
			<g>
				<path fill="#615B5D" d="M71.103,120.876c0,0,0.077,0.354,0.224,1.019c0.067,0.333,0.151,0.743,0.25,1.225
					c0.083,0.488,0.227,1.033,0.411,1.62c0.178,0.591,0.354,1.239,0.577,1.932c0.288,0.687,0.556,1.433,0.857,2.217
					c0.314,0.779,0.763,1.564,1.163,2.403c0.43,0.828,0.98,1.646,1.489,2.518c0.597,0.822,1.188,1.691,1.872,2.526
					c0.739,0.797,1.395,1.694,2.264,2.443c1.583,1.639,3.545,3.03,5.611,4.313c2.098,1.263,4.443,2.186,6.864,2.925
					c2.451,0.663,5.013,0.979,7.586,1.03l1.992-0.093c0.341-0.025,0.752-0.011,1.033-0.068l0.895-0.141l0.895-0.131
					c0.296-0.032,0.6-0.078,0.913-0.166c0.621-0.146,1.24-0.291,1.856-0.436c2.418-0.745,4.767-1.66,6.86-2.928
					c2.066-1.282,4.028-2.675,5.609-4.313c0.869-0.749,1.526-1.645,2.264-2.442c0.685-0.835,1.277-1.703,1.872-2.525
					c0.509-0.87,1.062-1.688,1.489-2.517c0.401-0.838,0.85-1.623,1.164-2.402c0.304-0.784,0.569-1.529,0.858-2.216
					c0.225-0.7,0.403-1.357,0.581-1.952c0.389-1.186,0.498-2.16,0.661-2.82c0.146-0.666,0.225-1.021,0.225-1.021
					s0.042,0.359,0.12,1.033c0.034,0.342,0.077,0.762,0.127,1.256c0.021,0.249,0.059,0.519,0.07,0.804
					c-0.006,0.285-0.013,0.589-0.02,0.909c-0.02,0.642-0.023,1.361-0.063,2.146c-0.087,0.776-0.228,1.611-0.358,2.518
					c-0.153,0.899-0.438,1.828-0.68,2.837c-0.27,0.999-0.72,1.989-1.109,3.068c-0.486,1.026-1.014,2.104-1.634,3.176
					c-0.68,1.032-1.331,2.155-2.197,3.16c-1.605,2.123-3.712,4.032-6.073,5.761c-0.612,0.403-1.23,0.81-1.854,1.22
					c-0.631,0.397-1.318,0.707-1.986,1.065l-1.015,0.521l-1.063,0.432c-0.72,0.267-1.43,0.578-2.17,0.804
					c-1.492,0.414-2.975,0.877-4.645,1.067l-1.221,0.183c-0.423,0.071-0.732,0.055-1.104,0.086l-2.295,0.124
					c-3.151-0.084-6.304-0.508-9.263-1.464c-0.74-0.228-1.452-0.535-2.169-0.807l-1.063-0.431l-1.015-0.521
					c-0.667-0.358-1.354-0.668-1.986-1.065c-0.622-0.41-1.239-0.817-1.852-1.221c-2.36-1.729-4.467-3.638-6.07-5.761
					c-0.867-1.004-1.52-2.126-2.197-3.158c-0.62-1.072-1.149-2.147-1.635-3.175c-0.389-1.078-0.842-2.067-1.108-3.066
					c-0.243-1.009-0.527-1.938-0.682-2.837c-0.133-0.905-0.271-1.741-0.359-2.517c-0.043-0.793-0.048-1.521-0.067-2.166
					c-0.007-0.321-0.014-0.625-0.021-0.911c0.013-0.282,0.051-0.544,0.072-0.789c0.05-0.49,0.092-0.906,0.126-1.244
					C71.061,121.236,71.103,120.876,71.103,120.876z"/>
			</g>
			<rect x="12.621" y="4.196" opacity="0.2" fill="#009444" stroke="#009444" stroke-miterlimit="10" width="117" height="149"/>
			<g id="bleu_1_">
				<g>
					<path fill="#615B5D" d="M12.085,120.976c0,0-0.051-0.182-0.146-0.522c-0.06-0.349-0.271-0.818-0.298-1.497
						c-0.03-0.336-0.07-0.721-0.095-1.142c-0.004-0.409,0.025-0.853,0.045-1.337c0.028-0.482,0.145-0.979,0.229-1.523
						c0.098-0.541,0.296-1.079,0.462-1.67c0.215-0.564,0.464-1.154,0.758-1.75c0.323-0.575,0.649-1.192,1.082-1.758
						c0.807-1.183,1.896-2.267,3.149-3.241c0.323-0.23,0.647-0.47,0.985-0.694c0.339-0.224,0.707-0.402,1.065-0.605
						c0.712-0.423,1.506-0.706,2.297-1.003c0.812-0.236,1.628-0.507,2.483-0.608c0.424-0.07,0.849-0.144,1.278-0.156l0.644-0.04
						l0.322-0.018l0.162-0.009l0.08,0.146l0.04,0.148h0.021l0.172-0.148l1.071-0.01c0.313,0.006,0.796,0.038,1.262,0.111
						c0.958,0.111,1.757,0.36,2.566,0.598c0.791,0.298,1.587,0.566,2.298,0.992c0.737,0.373,1.416,0.815,2.053,1.294
						c1.254,0.976,2.345,2.057,3.152,3.239c0.434,0.565,0.758,1.184,1.083,1.758c0.294,0.596,0.541,1.187,0.758,1.751
						c0.166,0.591,0.362,1.13,0.462,1.67c0.083,0.546,0.197,1.042,0.227,1.524c0.019,0.485,0.049,0.929,0.044,1.338
						c-0.036,0.408-0.068,0.783-0.099,1.121c-0.028,0.664-0.236,1.181-0.298,1.521c-0.096,0.339-0.146,0.52-0.146,0.52
						s-0.069-0.177-0.198-0.508c-0.13-0.326-0.271-0.804-0.54-1.373c-0.127-0.28-0.268-0.59-0.421-0.928
						c-0.192-0.321-0.366-0.67-0.564-1.029c-0.421-0.712-0.932-1.464-1.532-2.216c-0.63-0.732-1.316-1.484-2.144-2.143
						c-0.785-0.697-1.729-1.264-2.688-1.793c-0.975-0.522-2.045-0.874-3.124-1.185c-0.554-0.116-1.124-0.237-1.587-0.283
						c-0.383-0.104-1.265,0.061-1.938,0.021c0.299,0.008,0.075,0.157,0.139,0.157h-0.014l-0.026-0.15l-0.054-0.074l-0.106-0.033
						l-0.214-0.01l-0.428,0.005c-0.287-0.007-0.567,0.037-0.848,0.077c-0.566,0.056-1.118,0.172-1.671,0.288
						c-1.082,0.305-2.149,0.664-3.127,1.182c-0.96,0.53-1.905,1.097-2.691,1.794c-0.827,0.659-1.514,1.41-2.145,2.144
						c-0.599,0.753-1.109,1.506-1.53,2.218c-0.197,0.36-0.372,0.709-0.563,1.03c-0.151,0.33-0.291,0.634-0.417,0.907
						c-0.268,0.555-0.412,1.08-0.54,1.397C12.153,120.8,12.085,120.976,12.085,120.976z"/>
				</g>
				<g>
					<path fill="#615B5D" d="M70.617,120.392c0,0,0.051,0.182,0.146,0.522c0.06,0.349,0.271,0.818,0.298,1.497
						c0.03,0.336,0.07,0.721,0.095,1.142c0.004,0.409-0.025,0.852-0.045,1.337c-0.029,0.482-0.145,0.979-0.229,1.523
						c-0.099,0.541-0.296,1.079-0.462,1.67c-0.215,0.564-0.465,1.154-0.758,1.749c-0.324,0.575-0.649,1.192-1.082,1.758
						c-0.808,1.183-1.896,2.267-3.15,3.242c-0.322,0.229-0.647,0.469-0.984,0.694c-0.339,0.224-0.707,0.402-1.066,0.605
						c-0.711,0.423-1.506,0.706-2.296,1.003c-0.812,0.236-1.628,0.507-2.483,0.608c-0.424,0.07-0.848,0.144-1.278,0.156l-0.644,0.04
						l-0.322,0.018l-0.162,0.009l-0.08-0.133l-0.04-0.137h-0.021l-0.172,0.136l-1.071,0.004c-0.313-0.006-0.796-0.042-1.262-0.114
						c-0.958-0.111-1.757-0.363-2.566-0.601c-0.791-0.298-1.587-0.566-2.298-0.992c-0.737-0.373-1.416-0.815-2.053-1.294
						c-1.254-0.976-2.344-2.058-3.152-3.24c-0.433-0.566-0.757-1.184-1.082-1.758c-0.294-0.596-0.542-1.187-0.758-1.751
						c-0.166-0.591-0.362-1.13-0.462-1.67c-0.084-0.546-0.198-1.042-0.228-1.524c-0.019-0.485-0.049-0.929-0.044-1.338
						c0.036-0.408,0.068-0.783,0.099-1.121c0.028-0.664,0.236-1.182,0.298-1.521c0.096-0.339,0.146-0.52,0.146-0.52
						s0.069,0.177,0.198,0.508c0.13,0.326,0.271,0.804,0.54,1.373c0.127,0.28,0.268,0.59,0.421,0.928
						c0.192,0.321,0.366,0.669,0.564,1.029c0.422,0.712,0.933,1.464,1.532,2.216c0.631,0.732,1.316,1.484,2.144,2.142
						c0.785,0.697,1.729,1.265,2.689,1.794c0.975,0.522,2.044,0.874,3.123,1.185c0.555,0.116,1.124,0.236,1.587,0.283
						c0.383,0.104,1.265-0.048,1.938-0.008c-0.299-0.008-0.075-0.145-0.139-0.145h0.014l0.026,0.138l0.054,0.067l0.106,0.03
						l0.214,0.009l0.428-0.006c0.287,0.007,0.567-0.037,0.848-0.078c0.566-0.055,1.118-0.172,1.671-0.288
						c1.082-0.305,2.149-0.664,3.127-1.182c0.96-0.53,1.905-1.097,2.69-1.795c0.828-0.658,1.514-1.41,2.146-2.143
						c0.599-0.753,1.109-1.506,1.53-2.219c0.197-0.359,0.372-0.708,0.563-1.029c0.151-0.33,0.291-0.634,0.417-0.907
						c0.268-0.555,0.412-1.08,0.54-1.397C70.549,120.567,70.617,120.392,70.617,120.392z"/>
				</g>
				<rect x="12.621" y="101.196" opacity="0.1" fill="#27AAE1" stroke="#27AAE1" stroke-miterlimit="10" width="59" height="36"/>
			</g>
			<g opacity="0.2">
				<circle fill="#ED1C24" cx="187.632" cy="122.385" r="14.778"/>
				<g>
					<path fill="#ED1C24" d="M187.632,137.163c0,0-0.362-0.016-1.042-0.046c-0.341,0-0.756-0.057-1.244-0.134
						c-0.492-0.052-1.045-0.178-1.659-0.344c-1.219-0.338-2.695-0.869-4.178-1.853c-1.486-0.964-2.997-2.333-4.256-4.131
						c-1.24-1.805-2.181-4.061-2.521-6.572c-0.065-0.632-0.116-1.262-0.122-1.929c0.03-0.641,0.014-1.28,0.134-1.952
						c0.142-1.346,0.544-2.653,1.063-3.944c0.534-1.289,1.3-2.495,2.184-3.629c0.914-1.113,2.018-2.083,3.222-2.926
						c1.225-0.818,2.579-1.449,3.996-1.913c1.43-0.437,2.923-0.641,4.421-0.684c1.466,0.036,2.998,0.245,4.422,0.682
						c1.417,0.464,2.772,1.094,3.997,1.913c1.205,0.842,2.307,1.813,3.224,2.924c0.884,1.135,1.65,2.341,2.184,3.63
						c1.088,2.562,1.395,5.332,1.077,7.816c-0.342,2.532-1.281,4.774-2.521,6.583c-1.259,1.799-2.771,3.167-4.257,4.132
						c-1.482,0.983-2.959,1.515-4.178,1.853c-0.614,0.166-1.167,0.292-1.659,0.344c-0.487,0.077-0.903,0.134-1.244,0.134
						C187.994,137.147,187.632,137.163,187.632,137.163z M187.632,137.163c0,0,0.362-0.021,1.041-0.06
						c0.341-0.003,0.755-0.065,1.24-0.149c0.491-0.057,1.041-0.189,1.65-0.362c1.211-0.353,2.673-0.899,4.132-1.896
						c1.458-0.978,2.962-2.341,4.131-4.164c1.164-1.813,2.01-4.064,2.26-6.49c0.233-2.46-0.156-5.087-1.271-7.502
						c-1.119-2.41-2.954-4.558-5.261-6.095c-1.163-0.756-2.444-1.33-3.777-1.75c-1.35-0.393-2.712-0.559-4.146-0.59
						c-1.402,0.025-2.803,0.197-4.148,0.589c-1.333,0.42-2.614,0.994-3.776,1.751c-1.146,0.777-2.188,1.688-3.082,2.716
						c-0.867,1.045-1.634,2.167-2.182,3.379c-0.532,1.208-0.964,2.471-1.136,3.729c-0.136,0.616-0.143,1.277-0.192,1.912
						c-0.014,0.609,0.016,1.246,0.059,1.854c0.253,2.445,1.098,4.683,2.263,6.5c1.17,1.823,2.675,3.186,4.132,4.163
						c1.46,0.996,2.922,1.542,4.132,1.895c0.61,0.173,1.16,0.306,1.65,0.363c0.485,0.083,0.9,0.146,1.241,0.149
						C187.27,137.143,187.632,137.163,187.632,137.163z"/>
				</g>
			</g>
			<g>
				<path fill="#414042" d="M86.422,13.823c0,0,0.801-0.375,2.303-1.079c1.521-0.661,3.75-1.674,6.677-2.72
					c2.921-1.064,6.518-2.261,10.743-3.298c4.217-1.068,9.06-1.995,14.407-2.575c2.673-0.276,5.47-0.513,8.373-0.614
					c1.507-0.052,2.876-0.075,4.412-0.056c1.52,0.008,3.048,0.055,4.59,0.125c3.089,0.151,6.261,0.418,9.49,0.822
					c3.23,0.405,6.504,1.021,9.809,1.754c6.603,1.489,13.336,3.547,19.872,6.388c6.544,2.813,12.94,6.265,18.976,10.269
					c6.007,4.044,11.644,8.64,16.709,13.648c5.095,4.982,9.563,10.418,13.465,15.948c3.899,5.538,7.118,11.26,9.728,16.87
					c1.297,2.81,2.482,5.576,3.481,8.307c0.982,2.736,1.856,5.402,2.587,7.992c1.487,5.172,2.412,10.018,3.02,14.324
					c0.626,4.307,0.854,8.092,0.948,11.199c0.109,3.107,0.019,5.548-0.037,7.207c-0.091,1.657-0.14,2.541-0.14,2.541
					s-0.071-0.881-0.205-2.534c-0.136-1.649-0.395-4.064-0.807-7.113c-0.417-3.049-1.064-6.727-2.016-10.883
					c-0.975-4.151-2.291-8.773-4.042-13.688c-1.777-4.907-4.034-10.09-6.8-15.359c-2.774-5.268-6.157-10.561-9.997-15.767
					c-3.862-5.194-8.352-10.168-13.236-14.866c-4.911-4.672-10.273-9.027-16-12.846c-5.696-3.861-11.747-7.203-17.947-9.942
					c-6.206-2.72-12.509-4.993-18.788-6.566c-6.271-1.588-12.459-2.677-18.387-3.246c-1.486-0.141-2.945-0.259-4.374-0.336
					c-1.409-0.095-2.945-0.128-4.293-0.186c-2.808-0.095-5.524-0.053-8.134,0.036c-5.214,0.241-9.998,0.72-14.209,1.392
					c-4.209,0.68-7.863,1.446-10.85,2.192c-2.987,0.744-5.315,1.42-6.9,1.901C87.267,13.56,86.422,13.823,86.422,13.823z"/>
			</g>
		</g>
		<g id="tr">
		</g>
	</g>
	<g id="traits" display="none">
	</g>
</g>
<g id="Calque_10">
</g>
</svg>
